:SAMPLES-PER-SECOND 30
:FRAME-RANGE 1-1700
:FULLY-SPECIFIED
:DEGREES
797
root  -39.701 37.8573 -20.6525 -15.6649 -50.1734 12.6837
RightUpLeg  1.19392 0.811974 0.835679
RightLeg  37.997 1.23939 0.766088
RightFoot  -25.2894 -0.627747 -3.72978
RightToes  6.35937e-011 1.2921e-014 -6.02303e-014
Spine  16.8544 3.76139 1.12111
Spine1  -3.83188 3.44017 -4.77204
HEad  5.82463 32.1942 -23.8425
LeftShoulder1  2.04898 -7.75618 -11.617
LeftArm  38.4954 -38.8631 -99.8061
LeftForeArm  86.6629 2.28716 -15.7804
LeftHand  -0.620452 13.9041 -7.11347
RightShoulder  3.74585 9.28259 23.7123
RightArm  -15.5674 24.2219 68.3288
RightForeArm  83.913 -5.08247 5.69186
RightHand  0.40278 -7.51056 -22.4123
LeftUpLeg  -94.1951 6.00047 -45.4801
LeftLeg  116.682 -6.35591 10.8823
LeftFoot  -30.3827 -0.060222 -1.4505
LeftToes  -1.9349e-011 5.45182e-011 1.33515e-010
798
root  -41.0189 39.2507 -20.3764 -16.2381 -52.766 14.2472
RightUpLeg  3.07021 1.24159 -0.0689892
RightLeg  33.9729 5.25029 3.54525
RightFoot  -15.7001 -0.200069 -2.468
RightToes  6.35937e-011 1.2921e-014 -6.02303e-014
Spine  14.9208 3.73835 -0.425003
Spine1  -5.14495 3.11565 -4.58366
HEad  8.14876 34.067 -22.7222
LeftShoulder1  1.90283 -7.49056 -10.6196
LeftArm  34.0712 -39.2736 -96.6481
LeftForeArm  83.3401 2.9956 -15.5665
LeftHand  -0.563394 13.2493 -6.94758
RightShoulder  3.83972 9.14504 24.8537
RightArm  -17.1688 23.0664 70.4859
RightForeArm  85.3266 -4.81779 4.46206
RightHand  0.513828 -8.07638 -22.4593
LeftUpLeg  -97.5181 8.20904 -46.9508
LeftLeg  117.811 -7.74083 12.6998
LeftFoot  -30.9607 0.0614621 -0.723917
LeftToes  -1.9349e-011 5.45182e-011 1.33515e-010
799
root  -42.1347 40.5676 -20.1745 -16.6205 -54.4399 14.9965
RightUpLeg  2.82119 2.22817 -0.913128
RightLeg  33.5177 9.65722 6.58082
RightFoot  -4.75401 -0.133903 1.7644
RightToes  6.35937e-011 1.2921e-014 -6.02303e-014
Spine  13.5482 3.4938 -2.4047
Spine1  -5.15733 2.40745 -2.64136
HEad  9.08284 34.8004 -21.5312
LeftShoulder1  1.87722 -7.8492 -9.732
LeftArm  32.2227 -39.6965 -93.5135
LeftForeArm  76.263 3.34023 -15.6384
LeftHand  -0.419803 12.4679 -5.52404
RightShoulder  3.84875 8.84809 25.7211
RightArm  -18.1359 25.1087 71.6783
RightForeArm  88.7145 -4.40737 2.90971
RightHand  0.618388 -8.71247 -21.8398
LeftUpLeg  -99.1847 9.34079 -48.3519
LeftLeg  116.277 -5.7901 10.0536
LeftFoot  -30.8905 -0.119859 -1.77636
LeftToes  -1.9349e-011 5.45182e-011 1.33515e-010
800
root  -43.0154 41.3941 -20.0342 -17.29 -54.9528 15.1316
RightUpLeg  0.792235 6.79773 -0.592034
RightLeg  37.1561 10.4687 8.15891
RightFoot  1.99236 -1.06501 9.20946
RightToes  6.35937e-011 1.2921e-014 -6.02303e-014
Spine  14.354 3.45808 -3.9488
Spine1  -5.2187 1.92335 -0.525175
HEad  9.64893 33.5973 -19.5696
LeftShoulder1  1.93834 -8.11211 -9.89651
LeftArm  31.159 -39.638 -92.942
LeftForeArm  74.7455 3.58534 -15.575
LeftHand  -0.339218 12.3856 -4.31582
RightShoulder  3.95834 9.10207 25.9678
RightArm  -19.4545 27.5353 71.1877
RightForeArm  91.7182 -3.97753 1.1715
RightHand  0.717367 -9.26462 -21.6856
LeftUpLeg  -98.9306 8.79903 -49.1264
LeftLeg  112.994 -2.67726 5.06691
LeftFoot  -30.673 -0.468129 -3.83255
LeftToes  -1.9349e-011 5.45182e-011 1.33515e-010
801
root  -43.7211 41.7354 -19.911 -17.8557 -55.0213 15.3947
RightUpLeg  -1.80635 9.70365 -0.843097
RightLeg  40.7115 8.61474 7.59727
RightFoot  0.450396 -1.08731 10.5311
RightToes  6.35937e-011 1.2921e-014 -6.02303e-014
Spine  16.1261 3.74095 -4.47057
Spine1  -5.1635 2.03467 0.371099
HEad  8.8156 30.3823 -17.2185
LeftShoulder1  2.04041 -8.3015 -10.5673
LeftArm  28.7818 -39.9052 -94.5753
LeftForeArm  78.2362 4.20656 -15.0861
LeftHand  -0.287692 12.9974 -3.16824
RightShoulder  3.97714 9.23375 25.7746
RightArm  -19.8452 29.9636 69.4147
RightForeArm  92.0951 -3.84658 0.502235
RightHand  0.711318 -9.15193 -22.1153
LeftUpLeg  -98.0194 6.95498 -49.5415
LeftLeg  108.664 -1.05021 1.99552
LeftFoot  -30.1677 -0.702371 -5.32957
LeftToes  -1.9349e-011 5.45182e-011 1.33515e-010
802
root  -44.418 41.8568 -19.7909 -17.7269 -55.2085 15.6504
RightUpLeg  -4.15907 9.92118 -2.02358
RightLeg  38.9626 4.8432 3.91965
RightFoot  -4.12497 -0.539108 8.08951
RightToes  6.35937e-011 1.2921e-014 -6.02303e-014
Spine  18.0746 4.01345 -4.25777
Spine1  -5.48845 2.32451 0.65193
HEad  6.6612 27.3947 -16.1039
LeftShoulder1  2.16446 -8.6167 -11.2068
LeftArm  27.8893 -40.0508 -96.08
LeftForeArm  79.7312 4.54924 -14.7846
LeftHand  -0.237689 13.6452 -2.19766
RightShoulder  3.93407 9.34264 25.1317
RightArm  -19.8349 31.971 67.807
RightForeArm  91.8236 -3.8282 0.320703
RightHand  0.62373 -8.71895 -21.9714
LeftUpLeg  -96.8728 5.38227 -49.6645
LeftLeg  104.383 -0.8209 1.8127
LeftFoot  -29.8166 -0.756513 -5.75151
LeftToes  -1.9349e-011 5.45182e-011 1.33515e-010
803
root  -45.0921 41.6288 -19.6919 -17.1902 -56.8672 15.6674
RightUpLeg  -6.12368 8.26052 -2.95834
RightLeg  32.7721 1.39216 0.72013
RightFoot  -11.4469 -0.0728925 5.249
RightToes  6.35937e-011 1.2921e-014 -6.02303e-014
Spine  20.1222 4.29227 -3.00583
Spine1  -5.73489 2.91268 0.170853
HEad  4.03977 25.6596 -16.0786
LeftShoulder1  2.17607 -8.84478 -10.9338
LeftArm  26.7684 -40.828 -97.0889
LeftForeArm  79.2682 4.95604 -14.4782
LeftHand  -0.197774 13.8833 -1.59514
RightShoulder  4.04931 10.2188 23.9085
RightArm  -18.7146 33.6372 66.9936
RightForeArm  91.028 -3.97819 0.988029
RightHand  0.573192 -8.44629 -22.0195
LeftUpLeg  -96.9601 5.46667 -49.1476
LeftLeg  101.471 -0.874713 2.47051
LeftFoot  -29.6915 -0.775288 -5.90259
LeftToes  -1.9349e-011 5.45182e-011 1.33515e-010
